<?xml version="1.0" encoding="UTF-8"?>
<svg id="Layer_1" xmlns="http://www.w3.org/2000/svg" version="1.1" viewBox="0 0 1576.85 679.66">
  <!-- Generator: Adobe Illustrator 30.1.0, SVG Export Plug-In . SVG Version: 2.1.1 Build 136)  -->
  <defs>
    <style>
      .st0 {
        fill: #0b304c;
      }

      .st1, .st2, .st3 {
        fill: #fff;
      }

      .st1, .st4, .st5, .st3 {
        stroke: #fff;
        stroke-miterlimit: 10;
      }

      .st4 {
        stroke-width: 12px;
      }

      .st4, .st5 {
        fill: none;
      }

      .st5 {
        stroke-width: 4px;
      }

      .st3 {
        stroke-width: 10px;
      }
    </style>
  </defs>
  <rect class="st0" x="-11" y="-5.28" width="1601.36" height="698.55"/>
  <g>
    <g>
      <g>
        <path class="st1" d="M480.81,459.02c-2.82,0-5.37-.52-7.65-1.56-2.28-1.04-4.23-2.45-5.85-4.23-1.62-1.78-2.86-3.8-3.71-6.06-.85-2.26-1.27-4.63-1.27-7.1,0-3.21.55-6.05,1.65-8.52,1.1-2.47,2.56-4.56,4.38-6.26,1.82-1.7,3.81-2.98,6-3.85,2.18-.87,4.34-1.3,6.46-1.3,2.9,0,5.5.52,7.79,1.56,2.3,1.04,4.26,2.45,5.88,4.23,1.62,1.78,2.86,3.8,3.71,6.06.85,2.26,1.27,4.61,1.27,7.04,0,3.21-.56,6.05-1.68,8.52-1.12,2.47-2.61,4.56-4.46,6.26-1.85,1.7-3.87,2.99-6.06,3.88-2.18.89-4.34,1.33-6.46,1.33ZM480.75,456.47c2.74,0,4.98-.81,6.72-2.43,1.74-1.62,3.02-3.76,3.85-6.4.83-2.65,1.25-5.51,1.25-8.61,0-2.9-.44-5.59-1.3-8.08s-2.17-4.5-3.91-6.03c-1.74-1.53-3.94-2.29-6.61-2.29s-4.92.8-6.64,2.41c-1.72,1.6-2.98,3.71-3.8,6.32-.81,2.61-1.22,5.46-1.22,8.55,0,2.9.41,5.61,1.25,8.14.83,2.53,2.12,4.57,3.85,6.11,1.74,1.55,3.92,2.32,6.55,2.32Z"/>
        <path class="st1" d="M505.09,458.04c-.39,0-.66-.14-.81-.41-.15-.27-.23-.56-.23-.87.04-.66.19-1.02.46-1.1.27-.08.6-.12.99-.12,1.24,0,2.1-.22,2.58-.67.48-.44.78-1,.9-1.68.12-.68.17-1.38.17-2.12l.12-23.01c0-1.82-.31-2.97-.93-3.48-.62-.5-1.6-.89-2.96-1.16-.58-.12-.97-.22-1.16-.32-.19-.1-.29-.43-.29-1.01,0-.66.23-1.01.7-1.07.46-.06,1-.09,1.62-.09,2.16,0,3.91.17,5.25.52,1.33.35,2.51.97,3.54,1.85,1.02.89,2.13,2.14,3.33,3.77l15.88,20.86h.17l-.12-19.88c0-.73-.06-1.44-.17-2.12-.12-.68-.42-1.24-.9-1.68-.48-.44-1.34-.67-2.58-.67-.39,0-.72-.04-.99-.12-.27-.08-.44-.44-.52-1.1,0-.31.09-.6.26-.87.17-.27.43-.41.78-.41.85.04,1.54.07,2.06.09.52.02,1.04.04,1.56.06.52.02,1.17.03,1.94.03s1.41,0,1.91-.03c.5-.02,1.01-.04,1.54-.06.52-.02,1.19-.05,2-.09.39,0,.66.14.81.41.15.27.23.56.23.87-.04.66-.18,1.02-.44,1.1-.25.08-.59.12-1.01.12-1.2,0-2.05.22-2.55.67-.5.44-.8,1.01-.9,1.68-.1.68-.17,1.38-.2,2.12l-.12,29.21c-.04.31-.22.51-.55.61-.33.1-.63.14-.9.14-.73,0-1.29-.25-1.68-.75l-21.85-29.21h-.17l.12,23.01c.04.73.11,1.44.2,2.12.1.68.4,1.24.9,1.68.5.44,1.35.67,2.55.67.42,0,.77.04,1.04.12.27.08.42.44.46,1.1,0,.31-.09.6-.26.87-.17.27-.43.41-.78.41-.81-.04-1.5-.07-2.06-.09-.56-.02-1.1-.04-1.62-.06-.52-.02-1.17-.03-1.94-.03s-1.4,0-1.88.03c-.48.02-.98.04-1.48.06-.5.02-1.18.05-2.03.09Z"/>
        <path class="st1" d="M547.69,458.04c-.35,0-.6-.14-.75-.41-.16-.27-.23-.56-.23-.87.04-.66.19-1.02.46-1.1.27-.08.6-.12.99-.12,1.24,0,2.11-.22,2.61-.67.5-.44.82-1,.96-1.68.13-.68.2-1.38.2-2.12v-23.01c0-.73-.07-1.44-.2-2.12-.14-.68-.45-1.24-.96-1.68-.5-.44-1.37-.67-2.61-.67-.39,0-.72-.04-.99-.12-.27-.08-.43-.44-.46-1.1,0-.31.08-.6.23-.87.15-.27.41-.41.75-.41,1.27.04,2.45.08,3.54.12,1.08.04,2.2.06,3.36.06h18.2c.42,0,.78.1,1.07.29.29.19.43.56.43,1.1l.17,8.11c0,.39-.18.68-.55.87-.37.19-.71.29-1.01.29-.43,0-.81-.09-1.16-.26-.35-.17-.56-.43-.64-.78-.27-1.74-.59-3.14-.96-4.2-.37-1.06-.91-1.83-1.62-2.32-.72-.48-1.75-.74-3.1-.78h-7.77v14.72h10.49c.31.04.53.19.67.46.14.27.2.56.2.87,0,.27-.07.53-.2.78-.14.25-.36.38-.67.38h-10.49v10.95c.04.5.12,1.05.23,1.65.12.6.45,1.11,1.01,1.54.56.42,1.5.62,2.81.58h5.33c1.35-.04,2.39-.26,3.1-.67.71-.41,1.28-1.09,1.71-2.06.42-.97.89-2.3,1.39-4,.15-.39.42-.64.78-.75.37-.12.76-.13,1.19-.06.31.04.63.17.96.41.33.23.47.54.43.93l-1.16,7.3c-.12.54-.3.88-.55,1.01-.25.14-.63.2-1.13.2h-19.13c-1.16,0-2.29,0-3.39.03-1.1.02-2.29.07-3.56.14Z"/>
        <path class="st1" d="M606.92,459.02c-4.02,0-7.11-.71-9.27-2.12-2.16-1.41-3.25-3.49-3.25-6.23,0-1.39.47-2.54,1.42-3.45.95-.91,2.17-1.36,3.68-1.36,1,.04,1.71.29,2.12.75.41.46.61.81.61,1.04,0,.08-.17.2-.52.38-.35.17-.7.48-1.04.93-.35.45-.52,1.13-.52,2.06,0,1.74.54,3.12,1.62,4.14,1.08,1.02,2.8,1.54,5.16,1.54,1.66,0,3.08-.32,4.26-.96,1.18-.64,2.08-1.47,2.69-2.49.62-1.02.93-2.08.93-3.16,0-1.62-.46-2.96-1.39-4-.93-1.04-2.14-1.94-3.62-2.7-1.49-.75-3.06-1.48-4.72-2.17-1.66-.7-3.24-1.49-4.72-2.38-1.49-.89-2.71-2-3.68-3.33-.97-1.33-1.47-3-1.51-5.01-.04-2.43.48-4.41,1.56-5.94,1.08-1.53,2.59-2.65,4.52-3.36,1.93-.71,4.08-1.07,6.43-1.07,1.74,0,3.45.25,5.13.75,1.68.5,3.07,1.29,4.17,2.35,1.1,1.06,1.65,2.46,1.65,4.2,0,1.39-.47,2.54-1.42,3.45-.95.91-2.17,1.36-3.68,1.36-1.01-.08-1.71-.34-2.12-.78-.41-.44-.61-.78-.61-1.01,0-.12.23-.26.7-.43.46-.17.93-.48,1.39-.93.46-.44.7-1.11.7-2,0-1.47-.56-2.6-1.68-3.39-1.12-.79-2.51-1.19-4.17-1.19-2.51,0-4.34.59-5.48,1.77-1.14,1.18-1.71,2.5-1.71,3.97s.39,2.59,1.16,3.48c.77.89,1.93,1.76,3.48,2.61,1.74.93,3.5,1.79,5.27,2.58,1.78.79,3.43,1.67,4.96,2.64,1.53.97,2.75,2.17,3.68,3.62.93,1.45,1.39,3.31,1.39,5.59,0,1.97-.61,3.73-1.83,5.27-1.22,1.55-2.85,2.76-4.9,3.65-2.05.89-4.33,1.33-6.84,1.33Z"/>
        <path class="st1" d="M632.36,458.04c-.39,0-.66-.14-.81-.41-.15-.27-.23-.56-.23-.87.04-.66.19-1.02.46-1.1.27-.08.6-.12.99-.12,1.24,0,2.11-.22,2.61-.67.5-.44.82-1,.96-1.68.13-.68.2-1.38.2-2.12v-27.64h-4c-1.31.04-2.34.32-3.07.84-.73.52-1.27,1.33-1.62,2.43s-.66,2.52-.93,4.26c-.04.35-.28.61-.72.78-.44.17-.88.26-1.3.26-.27,0-.57-.1-.9-.29-.33-.19-.49-.48-.49-.87l.17-8.17c0-.54.15-.91.46-1.1.31-.19.68-.29,1.1-.29h28.34c.42,0,.78.1,1.07.29.29.19.43.56.43,1.1l.23,8.17c0,.39-.17.68-.49.87-.33.19-.65.29-.96.29-.39,0-.79-.09-1.22-.26-.43-.17-.68-.44-.75-.78-.27-1.74-.59-3.16-.96-4.26-.37-1.1-.91-1.91-1.62-2.43-.72-.52-1.75-.8-3.1-.84h-3.94v27.64c.04.73.12,1.44.23,2.12.12.68.43,1.24.96,1.68s1.38.67,2.58.67c.39,0,.71.04.99.12.27.08.42.44.46,1.1,0,.31-.08.6-.23.87-.15.27-.43.41-.81.41-1.24-.08-2.41-.13-3.51-.14-1.1-.02-2.21-.03-3.33-.03-2.32,0-4.73.06-7.24.17Z"/>
        <path class="st1" d="M659.54,458.04c-.35,0-.6-.14-.75-.41-.16-.27-.23-.56-.23-.87.04-.66.19-1.02.46-1.1.27-.08.6-.12.99-.12,1.24,0,2.11-.22,2.61-.67.5-.44.82-1,.96-1.68.13-.68.2-1.38.2-2.12v-23.01c0-.73-.07-1.44-.2-2.12-.14-.68-.45-1.24-.96-1.68-.5-.44-1.37-.67-2.61-.67-.39,0-.72-.04-.99-.12-.27-.08-.43-.44-.46-1.1,0-.31.08-.6.23-.87.15-.27.41-.41.75-.41,1.27.04,2.45.08,3.54.12,1.08.04,2.2.06,3.36.06h18.2c.42,0,.78.1,1.07.29.29.19.43.56.43,1.1l.17,8.11c0,.39-.18.68-.55.87-.37.19-.71.29-1.01.29-.43,0-.81-.09-1.16-.26-.35-.17-.56-.43-.64-.78-.27-1.74-.59-3.14-.96-4.2-.37-1.06-.91-1.83-1.62-2.32-.72-.48-1.75-.74-3.1-.78h-7.77v14.72h10.49c.31.04.53.19.67.46.14.27.2.56.2.87,0,.27-.07.53-.2.78-.14.25-.36.38-.67.38h-10.49v10.95c.04.5.12,1.05.23,1.65.12.6.45,1.11,1.01,1.54.56.42,1.5.62,2.81.58h5.33c1.35-.04,2.39-.26,3.1-.67.71-.41,1.28-1.09,1.71-2.06.42-.97.89-2.3,1.39-4,.15-.39.42-.64.78-.75.37-.12.76-.13,1.19-.06.31.04.63.17.96.41.33.23.47.54.43.93l-1.16,7.3c-.12.54-.3.88-.55,1.01-.25.14-.63.2-1.13.2h-19.13c-1.16,0-2.29,0-3.39.03-1.1.02-2.29.07-3.56.14Z"/>
        <path class="st1" d="M693.97,458.04c-.35,0-.61-.14-.78-.41-.17-.27-.26-.56-.26-.87.04-.66.2-1.02.49-1.1.29-.08.63-.12,1.01-.12,1.24,0,2.11-.22,2.61-.67.5-.44.82-1,.96-1.68.13-.68.2-1.38.2-2.12v-23.01c0-.73-.07-1.44-.2-2.12-.14-.68-.45-1.24-.96-1.68-.5-.44-1.37-.67-2.61-.67-.39,0-.72-.04-1.01-.12-.29-.08-.45-.44-.49-1.1,0-.31.09-.6.26-.87.17-.27.43-.41.78-.41,1.24.04,2.41.08,3.54.12,1.12.04,2.26.06,3.42.06h8.69c.73,0,1.69.06,2.87.17,1.18.12,2.43.35,3.77.7s2.6.91,3.8,1.68c1.2.77,2.17,1.8,2.93,3.07.75,1.27,1.13,2.88,1.13,4.81,0,1.82-.42,3.46-1.25,4.93-.83,1.47-1.93,2.72-3.3,3.77-1.37,1.04-2.92,1.84-4.64,2.41-1.72.56-3.47.84-5.24.84-.85,0-1.78-.06-2.78-.17-1-.12-2.01-.37-3.01-.75v8.35c.04.73.12,1.44.23,2.12s.43,1.24.96,1.68c.52.44,1.38.67,2.58.67.42,0,.77.04,1.04.12.27.08.42.44.46,1.1,0,.31-.09.6-.26.87-.17.27-.43.41-.78.41-2.47-.12-4.89-.17-7.24-.17-1.16,0-2.29,0-3.39.03-1.1.02-2.27.07-3.51.14ZM707.99,441.06c.89,0,1.88-.14,2.98-.43,1.1-.29,2.16-.77,3.19-1.45,1.02-.68,1.86-1.6,2.52-2.78.66-1.18.98-2.67.98-4.49,0-1.97-.39-3.53-1.16-4.67-.77-1.14-1.73-1.98-2.87-2.52-1.14-.54-2.27-.89-3.39-1.04-1.12-.15-2.03-.23-2.72-.23-.93,0-1.66.1-2.2.29-.54.19-.92.61-1.13,1.25-.21.64-.32,1.61-.32,2.93v12.52c.39.15.95.3,1.68.43.73.14,1.54.2,2.43.2Z"/>
        <path class="st1" d="M748.79,458.04c-.39,0-.66-.14-.81-.41-.15-.27-.23-.56-.23-.87.04-.66.19-1.02.46-1.1.27-.08.6-.12.99-.12,1.24,0,2.11-.22,2.61-.67s.82-1,.96-1.68c.13-.68.2-1.38.2-2.12v-27.64h-4c-1.31.04-2.34.32-3.07.84-.73.52-1.28,1.33-1.62,2.43s-.66,2.52-.93,4.26c-.04.35-.28.61-.72.78-.44.17-.88.26-1.3.26-.27,0-.57-.1-.9-.29-.33-.19-.49-.48-.49-.87l.17-8.17c0-.54.15-.91.46-1.1.31-.19.68-.29,1.1-.29h28.34c.42,0,.78.1,1.07.29.29.19.43.56.43,1.1l.23,8.17c0,.39-.17.68-.49.87-.33.19-.65.29-.96.29-.39,0-.79-.09-1.22-.26-.43-.17-.68-.44-.75-.78-.27-1.74-.59-3.16-.96-4.26-.37-1.1-.91-1.91-1.62-2.43s-1.75-.8-3.1-.84h-3.94v27.64c.04.73.12,1.44.23,2.12s.43,1.24.96,1.68,1.38.67,2.58.67c.39,0,.71.04.99.12.27.08.42.44.46,1.1,0,.31-.08.6-.23.87-.15.27-.42.41-.81.41-1.24-.08-2.41-.13-3.51-.14-1.1-.02-2.21-.03-3.33-.03-2.32,0-4.73.06-7.25.17Z"/>
        <path class="st1" d="M794.41,459.02c-2.82,0-5.37-.52-7.65-1.56-2.28-1.04-4.23-2.45-5.85-4.23-1.62-1.78-2.86-3.8-3.71-6.06-.85-2.26-1.28-4.63-1.28-7.1,0-3.21.55-6.05,1.65-8.52,1.1-2.47,2.56-4.56,4.38-6.26,1.82-1.7,3.82-2.98,6-3.85,2.18-.87,4.34-1.3,6.46-1.3,2.9,0,5.5.52,7.79,1.56,2.3,1.04,4.26,2.45,5.88,4.23,1.62,1.78,2.86,3.8,3.71,6.06.85,2.26,1.27,4.61,1.27,7.04,0,3.21-.56,6.05-1.68,8.52-1.12,2.47-2.61,4.56-4.46,6.26-1.86,1.7-3.87,2.99-6.06,3.88-2.18.89-4.34,1.33-6.46,1.33ZM794.35,456.47c2.74,0,4.98-.81,6.72-2.43,1.74-1.62,3.02-3.76,3.85-6.4.83-2.65,1.25-5.51,1.25-8.61,0-2.9-.43-5.59-1.3-8.08s-2.17-4.5-3.91-6.03c-1.74-1.53-3.94-2.29-6.61-2.29s-4.92.8-6.64,2.41c-1.72,1.6-2.98,3.71-3.8,6.32-.81,2.61-1.22,5.46-1.22,8.55,0,2.9.41,5.61,1.25,8.14.83,2.53,2.12,4.57,3.85,6.11,1.74,1.55,3.92,2.32,6.55,2.32Z"/>
        <path class="st1" d="M829.06,458.04c-.39,0-.66-.14-.81-.41-.15-.27-.23-.56-.23-.87.04-.66.19-1.02.46-1.1.27-.08.6-.12.99-.12,1.04,0,1.83-.21,2.38-.64.54-.42.97-.99,1.3-1.68.33-.7.65-1.41.96-2.14l10.14-23.99c.39-.93.46-1.63.23-2.12-.23-.48-.62-.83-1.16-1.04-.54-.21-1.14-.38-1.8-.49-.58-.12-.97-.22-1.16-.32-.19-.1-.29-.43-.29-1.01,0-.66.23-1.01.7-1.07.46-.06,1-.09,1.62-.09,1.58,0,2.94.15,4.06.46,1.12.31,2.09.9,2.9,1.77.81.87,1.57,2.17,2.26,3.91l9.74,23.99c.27.66.56,1.33.87,2.03.31.7.72,1.27,1.25,1.71.52.45,1.19.69,2,.72.42,0,.76.04,1.01.12.25.08.4.44.44,1.1,0,.31-.09.6-.26.87-.17.27-.43.41-.78.41-1.24-.08-2.32-.13-3.25-.14-.93-.02-1.97-.03-3.13-.03-2.28,0-4.67.06-7.19.17-.39,0-.66-.14-.81-.41-.15-.27-.23-.56-.23-.87.04-.66.19-1.02.46-1.1.27-.08.6-.12.99-.12,1.89,0,2.93-.35,3.1-1.04s-.01-1.83-.55-3.42l-1.97-4.81h-14.32c-.58,1.47-1,2.53-1.25,3.19s-.41,1.08-.46,1.27c-.06.19-.11.31-.15.35-.43,1.31-.65,2.29-.67,2.93-.02.64.29,1.05.93,1.25.64.19,1.71.29,3.22.29.42,0,.76.04,1.01.12.25.08.4.44.43,1.1,0,.31-.09.6-.26.87-.17.27-.43.41-.78.41-1.24-.08-2.31-.13-3.22-.14-.91-.02-1.94-.03-3.1-.03-.77,0-1.42,0-1.94.03-.52.02-1.05.04-1.59.06-.54.02-1.24.05-2.09.09ZM840.07,443.78h12.17l-5.85-14.9h-.17l-6.14,14.9Z"/>
        <path class="st1" d="M882.96,458.04c-.39,0-.66-.14-.81-.41-.16-.27-.23-.56-.23-.87.04-.66.19-1.02.46-1.1.27-.08.6-.12.99-.12,1.24,0,2.11-.22,2.61-.67.5-.44.82-1,.96-1.68.13-.68.2-1.38.2-2.12v-23.01c0-.73-.07-1.44-.2-2.12-.14-.68-.45-1.24-.96-1.68-.5-.44-1.37-.67-2.61-.67-.39,0-.71-.04-.99-.12-.27-.08-.42-.44-.46-1.1,0-.31.08-.6.23-.87.15-.27.42-.41.81-.41,1.24.04,2.39.08,3.48.12,1.08.04,2.2.06,3.36.06h8.17c2.24,0,4.01.17,5.3.49,1.29.33,2.42.8,3.39,1.42,1,.66,1.8,1.56,2.38,2.69.58,1.14.87,2.39.87,3.74,0,1.74-.41,3.2-1.22,4.38-.81,1.18-1.83,2.11-3.04,2.78-1.22.68-2.41,1.15-3.56,1.42v.17c2.05-.04,3.86.33,5.45,1.1,1.58.77,2.84,1.8,3.77,3.07.93,1.28,1.41,2.67,1.45,4.17.08,2.2-.39,4.02-1.39,5.45-1.01,1.43-2.31,2.57-3.91,3.42-1.6.85-3.34,1.45-5.22,1.8-1.88.35-3.68.52-5.42.52l-6.96-.06c-1.16,0-2.29,0-3.39.03-1.1.02-2.27.07-3.51.14ZM892.87,437.23h2.43c.77,0,1.64-.04,2.61-.12.97-.08,1.89-.32,2.78-.72.89-.41,1.61-1.08,2.17-2.03.56-.95.84-2.29.84-4.03,0-2.05-.49-3.71-1.48-4.98s-2.75-1.91-5.3-1.91h-4.06v13.79ZM897.04,455.6c1.74-.04,3.32-.33,4.75-.87,1.43-.54,2.57-1.45,3.42-2.72.85-1.28,1.28-3.03,1.28-5.27-.12-1.24-.53-2.39-1.25-3.48-.72-1.08-1.88-1.97-3.48-2.67-1.6-.7-3.78-1.04-6.52-1.04h-2.38v11.53c0,1.93.29,3.17.87,3.71.58.54,1.68.81,3.3.81Z"/>
        <path class="st1" d="M918.37,458.04c-.35,0-.6-.14-.75-.41-.15-.27-.23-.56-.23-.87.04-.66.19-1.02.46-1.1.27-.08.6-.12.99-.12,1.24,0,2.11-.22,2.61-.67s.82-1,.96-1.68.2-1.38.2-2.12v-23.01c0-.73-.07-1.44-.2-2.12-.14-.68-.45-1.24-.96-1.68-.5-.44-1.37-.67-2.61-.67-.39,0-.72-.04-.99-.12-.27-.08-.43-.44-.46-1.1,0-.31.08-.6.23-.87.15-.27.41-.41.75-.41,1.27.04,2.45.08,3.54.12,1.08.04,2.2.06,3.36.06h18.2c.42,0,.78.1,1.07.29.29.19.43.56.43,1.1l.17,8.11c0,.39-.18.68-.55.87-.37.19-.71.29-1.01.29-.43,0-.81-.09-1.16-.26s-.56-.43-.64-.78c-.27-1.74-.59-3.14-.96-4.2-.37-1.06-.91-1.83-1.62-2.32-.72-.48-1.75-.74-3.1-.78h-7.77v14.72h10.49c.31.04.53.19.67.46.13.27.2.56.2.87,0,.27-.07.53-.2.78-.14.25-.36.38-.67.38h-10.49v10.95c.04.5.12,1.05.23,1.65.12.6.45,1.11,1.01,1.54.56.42,1.5.62,2.81.58h5.33c1.35-.04,2.38-.26,3.1-.67.71-.41,1.28-1.09,1.71-2.06s.89-2.3,1.39-4c.15-.39.41-.64.78-.75.37-.12.76-.13,1.19-.06.31.04.63.17.96.41.33.23.47.54.43.93l-1.16,7.3c-.12.54-.3.88-.55,1.01-.25.14-.63.2-1.13.2h-19.13c-1.16,0-2.29,0-3.39.03-1.1.02-2.29.07-3.56.14Z"/>
        <path class="st1" d="M959.69,458.04c-.39,0-.66-.14-.81-.41-.15-.27-.23-.56-.23-.87.04-.66.19-1.02.46-1.1.27-.08.6-.12.99-.12,1.24,0,2.1-.22,2.61-.67.5-.44.82-1,.96-1.68.13-.68.2-1.38.2-2.12v-27.64h-4c-1.31.04-2.34.32-3.07.84-.73.52-1.28,1.33-1.62,2.43s-.66,2.52-.93,4.26c-.04.35-.28.61-.72.78-.45.17-.88.26-1.3.26-.27,0-.57-.1-.9-.29-.33-.19-.49-.48-.49-.87l.17-8.17c0-.54.15-.91.46-1.1.31-.19.68-.29,1.1-.29h28.34c.42,0,.78.1,1.07.29.29.19.43.56.43,1.1l.23,8.17c0,.39-.16.68-.49.87-.33.19-.65.29-.96.29-.39,0-.79-.09-1.22-.26-.42-.17-.68-.44-.75-.78-.27-1.74-.59-3.16-.96-4.26-.37-1.1-.91-1.91-1.62-2.43-.72-.52-1.75-.8-3.1-.84h-3.94v27.64c.04.73.12,1.44.23,2.12.12.68.43,1.24.96,1.68s1.38.67,2.58.67c.39,0,.71.04.99.12.27.08.42.44.46,1.1,0,.31-.08.6-.23.87-.15.27-.43.41-.81.41-1.24-.08-2.41-.13-3.51-.14-1.1-.02-2.21-.03-3.33-.03-2.32,0-4.73.06-7.24.17Z"/>
        <path class="st1" d="M994.46,458.04c-.39,0-.66-.14-.81-.41-.15-.27-.23-.56-.23-.87.04-.66.19-1.02.46-1.1.27-.08.6-.12.99-.12,1.24,0,2.1-.22,2.61-.67.5-.44.82-1,.96-1.68.13-.68.2-1.38.2-2.12v-27.64h-4c-1.31.04-2.34.32-3.07.84-.73.52-1.28,1.33-1.62,2.43s-.66,2.52-.93,4.26c-.04.35-.28.61-.72.78-.45.17-.88.26-1.3.26-.27,0-.57-.1-.9-.29-.33-.19-.49-.48-.49-.87l.17-8.17c0-.54.15-.91.46-1.1.31-.19.68-.29,1.1-.29h28.34c.42,0,.78.1,1.07.29.29.19.43.56.43,1.1l.23,8.17c0,.39-.16.68-.49.87-.33.19-.65.29-.96.29-.39,0-.79-.09-1.22-.26-.42-.17-.68-.44-.75-.78-.27-1.74-.59-3.16-.96-4.26-.37-1.1-.91-1.91-1.62-2.43-.72-.52-1.75-.8-3.1-.84h-3.94v27.64c.04.73.12,1.44.23,2.12.12.68.43,1.24.96,1.68s1.38.67,2.58.67c.39,0,.71.04.99.12.27.08.42.44.46,1.1,0,.31-.08.6-.23.87-.15.27-.43.41-.81.41-1.24-.08-2.41-.13-3.51-.14-1.1-.02-2.21-.03-3.33-.03-2.32,0-4.73.06-7.24.17Z"/>
        <path class="st1" d="M1021.65,458.04c-.35,0-.6-.14-.75-.41-.15-.27-.23-.56-.23-.87.04-.66.19-1.02.46-1.1.27-.08.6-.12.99-.12,1.24,0,2.11-.22,2.61-.67s.82-1,.96-1.68.2-1.38.2-2.12v-23.01c0-.73-.07-1.44-.2-2.12-.14-.68-.45-1.24-.96-1.68-.5-.44-1.37-.67-2.61-.67-.39,0-.72-.04-.99-.12-.27-.08-.43-.44-.46-1.1,0-.31.08-.6.23-.87.15-.27.41-.41.75-.41,1.27.04,2.45.08,3.54.12,1.08.04,2.2.06,3.36.06h18.2c.42,0,.78.1,1.07.29.29.19.43.56.43,1.1l.17,8.11c0,.39-.18.68-.55.87-.37.19-.71.29-1.01.29-.43,0-.81-.09-1.16-.26s-.56-.43-.64-.78c-.27-1.74-.59-3.14-.96-4.2-.37-1.06-.91-1.83-1.62-2.32-.72-.48-1.75-.74-3.1-.78h-7.77v14.72h10.49c.31.04.53.19.67.46.13.27.2.56.2.87,0,.27-.07.53-.2.78-.14.25-.36.38-.67.38h-10.49v10.95c.04.5.12,1.05.23,1.65.12.6.45,1.11,1.01,1.54.56.42,1.5.62,2.81.58h5.33c1.35-.04,2.38-.26,3.1-.67.71-.41,1.28-1.09,1.71-2.06s.89-2.3,1.39-4c.15-.39.41-.64.78-.75.37-.12.76-.13,1.19-.06.31.04.63.17.96.41.33.23.47.54.43.93l-1.16,7.3c-.12.54-.3.88-.55,1.01-.25.14-.63.2-1.13.2h-19.13c-1.16,0-2.29,0-3.39.03-1.1.02-2.29.07-3.56.14Z"/>
        <path class="st1" d="M1056.13,458.04c-.39,0-.66-.14-.81-.41-.15-.27-.23-.56-.23-.87.04-.66.19-1.02.46-1.1.27-.08.6-.12.99-.12,1.24,0,2.11-.22,2.61-.67s.82-1,.96-1.68.2-1.38.2-2.12v-22.95c0-.73-.07-1.45-.2-2.14-.14-.7-.45-1.27-.96-1.71-.5-.44-1.37-.67-2.61-.67-.39,0-.72-.04-.99-.12-.27-.08-.43-.44-.46-1.1,0-.31.08-.6.23-.87.15-.27.42-.41.81-.41,1.24.04,2.41.08,3.51.12,1.1.04,2.23.06,3.39.06h9.97c3.13.04,5.67.52,7.62,1.45s3.37,2.11,4.26,3.54c.89,1.43,1.33,2.92,1.33,4.46,0,2.05-.82,3.98-2.46,5.8-1.64,1.82-3.95,3.11-6.93,3.88,1.47,2.32,2.96,4.65,4.46,6.98,1.51,2.34,3.25,4.53,5.22,6.58.54.43,1.07.77,1.59,1.04.52.27,1.15.44,1.88.52.31.04.62.09.93.14.31.06.48.42.52,1.07,0,.31-.08.6-.23.87-.16.27-.43.41-.81.41-.81-.04-1.46-.07-1.94-.09-.48-.02-.96-.04-1.42-.06-.46-.02-1.08-.03-1.85-.03-1.58-.31-2.93-.87-4.03-1.68-1.1-.81-2.17-1.93-3.22-3.36-1.08-1.47-2.09-2.96-3.01-4.46-.93-1.51-1.84-2.97-2.72-4.4-.5-.81-1.01-1.4-1.54-1.77-.52-.37-1.5-.55-2.93-.55h-1.68v9.45c.04.73.12,1.44.23,2.12s.43,1.24.96,1.68,1.38.67,2.58.67c.39,0,.71.04.99.12.27.08.42.44.46,1.1,0,.31-.08.6-.23.87-.15.27-.43.41-.81.41-2.47-.12-4.89-.17-7.24-.17-1.16,0-2.28,0-3.36.03-1.08.02-2.24.07-3.48.14ZM1066.04,439.38h5.1c1.97,0,3.53-.27,4.67-.81s2-1.24,2.58-2.09c.58-.85.96-1.74,1.13-2.67s.26-1.78.26-2.55c0-1.28-.28-2.51-.84-3.71-.56-1.2-1.55-2.18-2.96-2.96-1.41-.77-3.37-1.16-5.88-1.16-1.66,0-2.75.32-3.27.96-.52.64-.78,1.92-.78,3.85v11.13Z"/>
        <path class="st1" d="M1125.15,459.02c-3.25,0-6.22-.77-8.92-2.32-2.71-1.54-4.88-3.75-6.52-6.61-1.64-2.86-2.46-6.28-2.46-10.26s.77-7.39,2.32-10.35c1.54-2.96,3.74-5.25,6.58-6.9,2.84-1.64,6.19-2.46,10.05-2.46,1.39,0,2.83.14,4.32.41,1.49.27,2.87.72,4.14,1.36,1.28.64,2.31,1.48,3.1,2.52.79,1.04,1.19,2.34,1.19,3.88.04,1.66-.46,3.12-1.51,4.38-1.04,1.26-2.51,1.88-4.41,1.88-1.16,0-1.98-.28-2.46-.84-.48-.56-.71-.98-.67-1.25,0-.12.24-.32.72-.61.48-.29.97-.73,1.45-1.33.48-.6.72-1.4.72-2.41,0-1.74-.58-3.12-1.74-4.14-1.16-1.02-2.8-1.54-4.93-1.54-2.32,0-4.4.66-6.23,1.97-1.83,1.31-3.27,3.24-4.32,5.77-1.04,2.53-1.56,5.63-1.56,9.3,0,3.09.55,5.9,1.65,8.43,1.1,2.53,2.65,4.54,4.64,6.03,1.99,1.49,4.3,2.23,6.93,2.23,2.09,0,3.87-.43,5.36-1.3,1.49-.87,2.83-2.27,4.03-4.2.35-.66.96-.71,1.85-.17.35.23.62.51.81.84.19.33.15.67-.12,1.01-1.47,1.85-2.86,3.26-4.17,4.2-1.31.95-2.74,1.59-4.29,1.94s-3.4.52-5.56.52Z"/>
        <path class="st1" d="M1141.79,458.04c-.39,0-.66-.14-.81-.41-.15-.27-.23-.56-.23-.87.04-.66.19-1.02.46-1.1.27-.08.6-.12.99-.12,1.04,0,1.83-.21,2.38-.64.54-.42.97-.99,1.3-1.68.33-.7.65-1.41.96-2.14l10.14-23.99c.39-.93.46-1.63.23-2.12-.23-.48-.62-.83-1.16-1.04-.54-.21-1.14-.38-1.8-.49-.58-.12-.97-.22-1.16-.32-.19-.1-.29-.43-.29-1.01,0-.66.23-1.01.7-1.07.46-.06,1-.09,1.62-.09,1.58,0,2.94.15,4.06.46,1.12.31,2.09.9,2.9,1.77.81.87,1.57,2.17,2.26,3.91l9.74,23.99c.27.66.56,1.33.87,2.03.31.7.72,1.27,1.25,1.71.52.45,1.19.69,2,.72.42,0,.76.04,1.01.12.25.08.4.44.44,1.1,0,.31-.09.6-.26.87-.17.27-.43.41-.78.41-1.24-.08-2.32-.13-3.25-.14-.93-.02-1.97-.03-3.13-.03-2.28,0-4.67.06-7.19.17-.39,0-.66-.14-.81-.41-.15-.27-.23-.56-.23-.87.04-.66.19-1.02.46-1.1.27-.08.6-.12.99-.12,1.89,0,2.93-.35,3.1-1.04s-.01-1.83-.55-3.42l-1.97-4.81h-14.32c-.58,1.47-1,2.53-1.25,3.19s-.41,1.08-.46,1.27c-.06.19-.11.31-.15.35-.43,1.31-.65,2.29-.67,2.93-.02.64.29,1.05.93,1.25.64.19,1.71.29,3.22.29.42,0,.76.04,1.01.12.25.08.4.44.43,1.1,0,.31-.09.6-.26.87-.17.27-.43.41-.78.41-1.24-.08-2.31-.13-3.22-.14-.91-.02-1.94-.03-3.1-.03-.77,0-1.42,0-1.94.03-.52.02-1.05.04-1.59.06-.54.02-1.24.05-2.09.09ZM1152.8,443.78h12.17l-5.85-14.9h-.17l-6.14,14.9Z"/>
        <path class="st1" d="M1180.5,458.04c-.39,0-.66-.14-.81-.41-.15-.27-.23-.56-.23-.87.04-.66.19-1.02.46-1.1.27-.08.6-.12.99-.12,1.24,0,2.11-.22,2.61-.67s.82-1,.96-1.68.2-1.38.2-2.12v-22.95c0-.73-.07-1.45-.2-2.14-.14-.7-.45-1.27-.96-1.71-.5-.44-1.37-.67-2.61-.67-.39,0-.72-.04-.99-.12-.27-.08-.43-.44-.46-1.1,0-.31.08-.6.23-.87.15-.27.42-.41.81-.41,1.24.04,2.41.08,3.51.12,1.1.04,2.23.06,3.39.06h9.97c3.13.04,5.67.52,7.62,1.45s3.37,2.11,4.26,3.54c.89,1.43,1.33,2.92,1.33,4.46,0,2.05-.82,3.98-2.46,5.8-1.64,1.82-3.95,3.11-6.93,3.88,1.47,2.32,2.96,4.65,4.46,6.98,1.51,2.34,3.25,4.53,5.22,6.58.54.43,1.07.77,1.59,1.04.52.27,1.15.44,1.88.52.31.04.62.09.93.14.31.06.48.42.52,1.07,0,.31-.08.6-.23.87-.16.27-.43.41-.81.41-.81-.04-1.46-.07-1.94-.09-.48-.02-.96-.04-1.42-.06-.46-.02-1.08-.03-1.85-.03-1.58-.31-2.93-.87-4.03-1.68-1.1-.81-2.17-1.93-3.22-3.36-1.08-1.47-2.09-2.96-3.01-4.46-.93-1.51-1.84-2.97-2.72-4.4-.5-.81-1.01-1.4-1.54-1.77-.52-.37-1.5-.55-2.93-.55h-1.68v9.45c.04.73.12,1.44.23,2.12s.43,1.24.96,1.68,1.38.67,2.58.67c.39,0,.71.04.99.12.27.08.42.44.46,1.1,0,.31-.08.6-.23.87-.15.27-.43.41-.81.41-2.47-.12-4.89-.17-7.24-.17-1.16,0-2.28,0-3.36.03-1.08.02-2.24.07-3.48.14ZM1190.41,439.38h5.1c1.97,0,3.53-.27,4.67-.81s2-1.24,2.58-2.09c.58-.85.96-1.74,1.13-2.67s.26-1.78.26-2.55c0-1.28-.28-2.51-.84-3.71-.56-1.2-1.55-2.18-2.96-2.96-1.41-.77-3.37-1.16-5.88-1.16-1.66,0-2.75.32-3.27.96-.52.64-.78,1.92-.78,3.85v11.13Z"/>
        <path class="st1" d="M1219.33,458.04c-.35,0-.6-.14-.75-.41-.15-.27-.23-.56-.23-.87.04-.66.19-1.02.46-1.1.27-.08.6-.12.99-.12,1.24,0,2.11-.22,2.61-.67s.82-1,.96-1.68.2-1.38.2-2.12v-23.01c0-.73-.07-1.44-.2-2.12-.14-.68-.45-1.24-.96-1.68-.5-.44-1.37-.67-2.61-.67-.39,0-.72-.04-.99-.12-.27-.08-.43-.44-.46-1.1,0-.31.08-.6.23-.87.15-.27.41-.41.75-.41,1.27.04,2.45.08,3.54.12,1.08.04,2.2.06,3.36.06h18.2c.42,0,.78.1,1.07.29.29.19.43.56.43,1.1l.17,8.11c0,.39-.18.68-.55.87-.37.19-.71.29-1.01.29-.43,0-.81-.09-1.16-.26s-.56-.43-.64-.78c-.27-1.74-.59-3.14-.96-4.2-.37-1.06-.91-1.83-1.62-2.32-.72-.48-1.75-.74-3.1-.78h-7.77v14.72h10.49c.31.04.53.19.67.46.13.27.2.56.2.87,0,.27-.07.53-.2.78-.14.25-.36.38-.67.38h-10.49v10.95c.04.5.12,1.05.23,1.65.12.6.45,1.11,1.01,1.54.56.42,1.5.62,2.81.58h5.33c1.35-.04,2.38-.26,3.1-.67.71-.41,1.28-1.09,1.71-2.06s.89-2.3,1.39-4c.15-.39.41-.64.78-.75.37-.12.76-.13,1.19-.06.31.04.63.17.96.41.33.23.47.54.43.93l-1.16,7.3c-.12.54-.3.88-.55,1.01-.25.14-.63.2-1.13.2h-19.13c-1.16,0-2.29,0-3.39.03-1.1.02-2.29.07-3.56.14Z"/>
        <path class="st1" d="M1253.76,458.04c-.35,0-.6-.14-.75-.41-.15-.27-.23-.56-.23-.87.04-.66.19-1.02.46-1.1.27-.08.6-.12.99-.12,1.24,0,2.11-.22,2.61-.67s.82-1,.96-1.68.2-1.38.2-2.12v-23.01c0-.73-.07-1.44-.2-2.12-.14-.68-.45-1.24-.96-1.68-.5-.44-1.37-.67-2.61-.67-.39,0-.72-.04-.99-.12-.27-.08-.43-.44-.46-1.1,0-.31.08-.6.23-.87.15-.27.41-.41.75-.41,1.27.04,2.45.08,3.54.12,1.08.04,2.2.06,3.36.06h18.2c.42,0,.78.1,1.07.29.29.19.43.56.43,1.1l.17,8.11c0,.39-.18.68-.55.87-.37.19-.71.29-1.01.29-.43,0-.81-.09-1.16-.26s-.56-.43-.64-.78c-.27-1.74-.59-3.14-.96-4.2-.37-1.06-.91-1.83-1.62-2.32-.72-.48-1.75-.74-3.1-.78h-7.77v14.72h10.49c.31.04.53.19.67.46.13.27.2.56.2.87,0,.27-.07.53-.2.78-.14.25-.36.38-.67.38h-10.49v10.95c.04.5.12,1.05.23,1.65.12.6.45,1.11,1.01,1.54.56.42,1.5.62,2.81.58h5.33c1.35-.04,2.38-.26,3.1-.67.71-.41,1.28-1.09,1.71-2.06s.89-2.3,1.39-4c.15-.39.41-.64.78-.75.37-.12.76-.13,1.19-.06.31.04.63.17.96.41.33.23.47.54.43.93l-1.16,7.3c-.12.54-.3.88-.55,1.01-.25.14-.63.2-1.13.2h-19.13c-1.16,0-2.29,0-3.39.03-1.1.02-2.29.07-3.56.14Z"/>
        <path class="st1" d="M1288.24,458.04c-.39,0-.66-.14-.81-.41-.15-.27-.23-.56-.23-.87.04-.66.19-1.02.46-1.1.27-.08.6-.12.99-.12,1.24,0,2.11-.22,2.61-.67s.82-1,.96-1.68.2-1.38.2-2.12v-22.95c0-.73-.07-1.45-.2-2.14-.14-.7-.45-1.27-.96-1.71-.5-.44-1.37-.67-2.61-.67-.39,0-.72-.04-.99-.12-.27-.08-.43-.44-.46-1.1,0-.31.08-.6.23-.87.15-.27.42-.41.81-.41,1.24.04,2.41.08,3.51.12,1.1.04,2.23.06,3.39.06h9.97c3.13.04,5.67.52,7.62,1.45s3.37,2.11,4.26,3.54c.89,1.43,1.33,2.92,1.33,4.46,0,2.05-.82,3.98-2.46,5.8-1.64,1.82-3.95,3.11-6.93,3.88,1.47,2.32,2.96,4.65,4.46,6.98,1.51,2.34,3.25,4.53,5.22,6.58.54.43,1.07.77,1.59,1.04.52.27,1.15.44,1.88.52.31.04.62.09.93.14.31.06.48.42.52,1.07,0,.31-.08.6-.23.87-.16.27-.43.41-.81.41-.81-.04-1.46-.07-1.94-.09-.48-.02-.96-.04-1.42-.06-.46-.02-1.08-.03-1.85-.03-1.58-.31-2.93-.87-4.03-1.68-1.1-.81-2.17-1.93-3.22-3.36-1.08-1.47-2.09-2.96-3.01-4.46-.93-1.51-1.84-2.97-2.72-4.4-.5-.81-1.01-1.4-1.54-1.77-.52-.37-1.5-.55-2.93-.55h-1.68v9.45c.04.73.12,1.44.23,2.12s.43,1.24.96,1.68,1.38.67,2.58.67c.39,0,.71.04.99.12.27.08.42.44.46,1.1,0,.31-.08.6-.23.87-.15.27-.43.41-.81.41-2.47-.12-4.89-.17-7.24-.17-1.16,0-2.28,0-3.36.03-1.08.02-2.24.07-3.48.14ZM1298.15,439.38h5.1c1.97,0,3.53-.27,4.67-.81s2-1.24,2.58-2.09c.58-.85.96-1.74,1.13-2.67s.26-1.78.26-2.55c0-1.28-.28-2.51-.84-3.71-.56-1.2-1.55-2.18-2.96-2.96-1.41-.77-3.37-1.16-5.88-1.16-1.66,0-2.75.32-3.27.96-.52.64-.78,1.92-.78,3.85v11.13Z"/>
      </g>
      <g>
        <path class="st3" d="M514.48,353.71c-15.22,0-26.93-2.67-35.12-8.01-8.2-5.34-12.29-13.21-12.29-23.6,0-5.27,1.79-9.62,5.38-13.06,3.58-3.44,8.23-5.16,13.94-5.16,3.8.15,6.48,1.1,8.01,2.85,1.54,1.76,2.31,3.07,2.31,3.95,0,.29-.66.77-1.98,1.43-1.32.66-2.63,1.83-3.95,3.51-1.32,1.68-1.98,4.28-1.98,7.79,0,6.59,2.05,11.82,6.15,15.7,4.1,3.88,10.61,5.82,19.54,5.82,6.29,0,11.67-1.21,16.14-3.62,4.46-2.42,7.87-5.56,10.21-9.44,2.34-3.88,3.51-7.87,3.51-11.96,0-6.15-1.76-11.2-5.27-15.15-3.51-3.95-8.09-7.35-13.72-10.21-5.64-2.85-11.6-5.6-17.89-8.23-6.29-2.63-12.26-5.63-17.89-9-5.64-3.37-10.28-7.57-13.94-12.62-3.66-5.05-5.56-11.38-5.71-18.99-.15-9.22,1.83-16.72,5.93-22.5,4.1-5.78,9.8-10.02,17.12-12.73,7.32-2.71,15.44-4.06,24.37-4.06,6.59,0,13.06.95,19.43,2.85,6.37,1.9,11.64,4.87,15.81,8.89,4.17,4.03,6.26,9.33,6.26,15.92,0,5.27-1.79,9.63-5.38,13.06-3.59,3.44-8.23,5.16-13.94,5.16-3.81-.29-6.48-1.28-8.01-2.96-1.54-1.68-2.3-2.96-2.3-3.84,0-.44.88-.99,2.63-1.65,1.76-.66,3.51-1.83,5.27-3.51,1.76-1.68,2.63-4.21,2.63-7.57,0-5.56-2.12-9.84-6.37-12.84-4.25-3-9.52-4.5-15.81-4.5-9.52,0-16.43,2.23-20.75,6.7-4.32,4.47-6.48,9.48-6.48,15.04s1.46,9.81,4.39,13.17c2.93,3.37,7.32,6.66,13.17,9.88,6.59,3.51,13.24,6.77,19.98,9.77,6.73,3,12.99,6.33,18.77,9.99,5.78,3.66,10.43,8.23,13.94,13.72,3.51,5.49,5.27,12.55,5.27,21.19,0,7.46-2.31,14.13-6.92,19.98-4.61,5.86-10.79,10.47-18.55,13.83-7.76,3.37-16.39,5.05-25.9,5.05Z"/>
        <path class="st3" d="M610.86,349.97c-1.46,0-2.49-.51-3.07-1.54-.59-1.02-.88-2.12-.88-3.29.14-2.49.73-3.88,1.76-4.17,1.02-.29,2.27-.44,3.73-.44,4.68,0,7.98-.84,9.88-2.52,1.9-1.68,3.11-3.8,3.62-6.37.51-2.56.77-5.23.77-8.01v-104.72h-15.15c-4.98.15-8.86,1.21-11.63,3.18-2.78,1.98-4.83,5.05-6.15,9.22-1.32,4.17-2.49,9.55-3.51,16.14-.15,1.32-1.06,2.31-2.74,2.96-1.68.66-3.33.99-4.94.99-1.03,0-2.16-.36-3.4-1.1-1.25-.73-1.87-1.83-1.87-3.29l.66-30.95c0-2.05.58-3.44,1.76-4.17,1.17-.73,2.56-1.1,4.17-1.1h107.35c1.61,0,2.96.37,4.06,1.1,1.1.73,1.65,2.12,1.65,4.17l.88,30.95c0,1.46-.62,2.56-1.87,3.29-1.25.73-2.45,1.1-3.62,1.1-1.46,0-3-.33-4.61-.99-1.61-.66-2.56-1.65-2.85-2.96-1.03-6.59-2.23-11.96-3.62-16.14-1.39-4.17-3.44-7.24-6.15-9.22-2.71-1.98-6.62-3.04-11.75-3.18h-14.93v104.72c.14,2.78.44,5.45.88,8.01.44,2.56,1.65,4.69,3.62,6.37,1.98,1.68,5.23,2.52,9.77,2.52,1.46,0,2.71.15,3.73.44,1.02.29,1.61,1.68,1.76,4.17,0,1.17-.29,2.27-.88,3.29-.59,1.02-1.61,1.54-3.07,1.54-4.69-.29-9.11-.48-13.28-.55-4.17-.08-8.38-.11-12.62-.11-8.78,0-17.93.22-27.44.66Z"/>
        <path class="st3" d="M714.03,349.97c-1.46,0-2.49-.51-3.07-1.54-.59-1.02-.88-2.12-.88-3.29.14-2.49.73-3.88,1.76-4.17,1.02-.29,2.27-.44,3.73-.44,4.68,0,7.98-.84,9.88-2.52,1.9-1.68,3.11-3.8,3.62-6.37.51-2.56.77-5.23.77-8.01v-86.93c0-2.78-.26-5.49-.77-8.12-.51-2.63-1.72-4.79-3.62-6.48-1.9-1.68-5.2-2.52-9.88-2.52-1.46,0-2.71-.14-3.73-.44-1.03-.29-1.61-1.68-1.76-4.17,0-1.17.29-2.27.88-3.29.58-1.02,1.61-1.54,3.07-1.54,4.68.15,9.11.29,13.28.44,4.17.15,8.45.22,12.84.22h37.76c11.85.15,21.48,1.98,28.87,5.49,7.39,3.51,12.77,7.98,16.14,13.39,3.36,5.42,5.05,11.05,5.05,16.9,0,7.76-3.11,15.08-9.33,21.95-6.22,6.88-14.97,11.78-26.23,14.71,5.56,8.78,11.2,17.6,16.9,26.45,5.71,8.86,12.29,17.16,19.76,24.92,2.05,1.61,4.06,2.93,6.04,3.95,1.98,1.03,4.35,1.68,7.13,1.98,1.17.15,2.34.33,3.51.55,1.17.22,1.83,1.57,1.97,4.06,0,1.17-.29,2.27-.88,3.29-.59,1.02-1.61,1.54-3.07,1.54-3.07-.15-5.53-.26-7.35-.33-1.83-.08-3.62-.15-5.38-.22-1.76-.08-4.1-.11-7.02-.11-6-1.17-11.09-3.29-15.26-6.37-4.17-3.07-8.23-7.32-12.18-12.73-4.1-5.56-7.9-11.2-11.42-16.9-3.51-5.71-6.95-11.27-10.32-16.68-1.9-3.07-3.84-5.3-5.82-6.7-1.98-1.39-5.67-2.09-11.09-2.09h-6.37v35.78c.14,2.78.44,5.45.88,8.01.44,2.56,1.65,4.69,3.62,6.37,1.98,1.68,5.23,2.52,9.77,2.52,1.46,0,2.71.15,3.73.44,1.02.29,1.61,1.68,1.76,4.17,0,1.17-.3,2.27-.88,3.29-.59,1.02-1.61,1.54-3.07,1.54-9.37-.44-18.52-.66-27.44-.66-4.39,0-8.64.03-12.73.11-4.1.07-8.49.25-13.17.55ZM751.57,279.28h19.32c7.46,0,13.35-1.02,17.67-3.07,4.32-2.05,7.57-4.68,9.77-7.9,2.2-3.22,3.62-6.59,4.28-10.1.66-3.51.99-6.73.99-9.66,0-4.83-1.06-9.51-3.18-14.05-2.12-4.53-5.86-8.27-11.2-11.2-5.34-2.93-12.77-4.39-22.28-4.39-6.29,0-10.43,1.21-12.4,3.62-1.98,2.42-2.96,7.28-2.96,14.6v42.15Z"/>
        <path class="st3" d="M861.12,349.97c-1.46,0-2.49-.51-3.07-1.54-.59-1.02-.88-2.12-.88-3.29.14-2.49.73-3.88,1.76-4.17,1.02-.29,2.27-.44,3.73-.44,4.68,0,7.97-.84,9.88-2.52,1.9-1.68,3.11-3.8,3.62-6.37.51-2.56.84-5.23.99-8.01v-87.15c-.15-2.78-.48-5.45-.99-8.01-.51-2.56-1.72-4.68-3.62-6.37-1.9-1.68-5.2-2.52-9.88-2.52-1.46,0-2.71-.14-3.73-.44-1.03-.29-1.61-1.68-1.76-4.17,0-1.17.29-2.27.88-3.29.58-1.02,1.61-1.54,3.07-1.54,4.68.15,9.11.29,13.28.44,4.17.15,8.45.22,12.84.22,8.93,0,18.07-.22,27.44-.66,1.32,0,2.31.51,2.96,1.54.66,1.03.99,2.12.99,3.29-.15,2.49-.73,3.88-1.76,4.17-1.03.29-2.34.44-3.95.44-4.54,0-7.79.84-9.77,2.52-1.98,1.68-3.18,3.81-3.62,6.37-.44,2.56-.73,5.23-.88,8.01v87.15c.14,2.78.44,5.45.88,8.01.44,2.56,1.65,4.69,3.62,6.37,1.98,1.68,5.23,2.52,9.77,2.52,1.61,0,2.93.15,3.95.44,1.02.29,1.61,1.68,1.76,4.17,0,1.17-.33,2.27-.99,3.29-.66,1.02-1.65,1.54-2.96,1.54-9.37-.44-18.44-.66-27.22-.66-4.39,0-8.71.03-12.95.11-4.25.07-8.71.25-13.39.55Z"/>
        <path class="st3" d="M941.03,349.97c-1.32,0-2.27-.51-2.85-1.54-.59-1.02-.88-2.12-.88-3.29.14-2.49.73-3.88,1.76-4.17,1.02-.29,2.27-.44,3.73-.44,4.68,0,7.98-.84,9.88-2.52,1.9-1.68,3.11-3.8,3.62-6.37.51-2.56.77-5.23.77-8.01v-87.15c0-2.78-.26-5.45-.77-8.01-.51-2.56-1.72-4.68-3.62-6.37-1.9-1.68-5.2-2.52-9.88-2.52-1.46,0-2.71-.14-3.73-.44-1.03-.29-1.61-1.68-1.76-4.17,0-1.17.29-2.27.88-3.29.58-1.02,1.54-1.54,2.85-1.54,4.83.15,9.29.29,13.39.44,4.1.15,8.34.22,12.73.22h34.25c14.05,0,26.78,2.78,38.2,8.34,11.42,5.56,20.49,13.54,27.22,23.93,6.73,10.39,10.1,22.98,10.1,37.76,0,11.71-2.27,21.88-6.81,30.52-4.54,8.64-10.61,15.77-18.22,21.4-7.61,5.64-16.14,9.81-25.58,12.51-9.44,2.71-19.06,4.06-28.87,4.06h-30.3c-4.39,0-8.64.03-12.73.11-4.1.07-8.56.25-13.39.55ZM1000.74,341.19c11.85,0,21.44-2.52,28.76-7.57,7.32-5.05,12.62-12.11,15.92-21.19,3.29-9.07,4.94-19.61,4.94-31.61s-2.12-22.68-6.37-32.05c-4.25-9.36-10.43-16.72-18.55-22.06-8.12-5.34-17.97-8.01-29.53-8.01-2.34,0-5.42.04-9.22.11-3.81.08-6.44.11-7.9.11v107.35c0,5.86,1.79,9.81,5.38,11.85,3.58,2.05,9.11,3.07,16.58,3.07Z"/>
        <path class="st3" d="M1097.55,349.97c-1.32,0-2.27-.51-2.85-1.54-.59-1.02-.88-2.12-.88-3.29.14-2.49.73-3.88,1.76-4.17,1.02-.29,2.27-.44,3.73-.44,4.68,0,7.98-.84,9.88-2.52,1.9-1.68,3.11-3.8,3.62-6.37.51-2.56.77-5.23.77-8.01v-87.15c0-2.78-.26-5.45-.77-8.01-.51-2.56-1.72-4.68-3.62-6.37-1.9-1.68-5.2-2.52-9.88-2.52-1.46,0-2.71-.14-3.73-.44-1.03-.29-1.61-1.68-1.76-4.17,0-1.17.29-2.27.88-3.29.58-1.02,1.54-1.54,2.85-1.54,4.83.15,9.29.29,13.39.44,4.1.15,8.34.22,12.73.22h68.93c1.61,0,2.96.37,4.06,1.1,1.1.73,1.65,2.12,1.65,4.17l.66,30.73c0,1.46-.7,2.56-2.09,3.29-1.39.73-2.67,1.1-3.84,1.1-1.61,0-3.07-.33-4.39-.99s-2.12-1.65-2.42-2.96c-1.03-6.59-2.23-11.89-3.62-15.92-1.39-4.02-3.44-6.95-6.15-8.78-2.71-1.83-6.62-2.82-11.75-2.96h-29.42v55.76h39.74c1.17.15,2.01.73,2.52,1.76.51,1.03.77,2.12.77,3.29,0,1.03-.26,2.01-.77,2.96-.51.95-1.36,1.43-2.52,1.43h-39.74v41.49c.14,1.9.44,3.99.88,6.26.44,2.27,1.72,4.21,3.84,5.82,2.12,1.61,5.67,2.34,10.65,2.2h20.2c5.12-.14,9.04-.99,11.75-2.52,2.71-1.54,4.86-4.13,6.48-7.79,1.61-3.66,3.37-8.71,5.27-15.15.58-1.46,1.57-2.41,2.96-2.85,1.39-.44,2.89-.51,4.5-.22,1.17.15,2.38.66,3.62,1.54,1.24.88,1.79,2.05,1.65,3.51l-4.39,27.66c-.44,2.05-1.14,3.33-2.09,3.84-.95.51-2.38.77-4.28.77h-72.45c-4.39,0-8.67.03-12.84.11-4.17.07-8.67.25-13.5.55Z"/>
        <path class="st3" d="M1276.91,349.97c-1.46,0-2.49-.51-3.07-1.54-.59-1.02-.88-2.12-.88-3.29.14-2.49.73-3.88,1.76-4.17,1.02-.29,2.27-.44,3.73-.44,4.68,0,7.97-.84,9.88-2.52,1.9-1.68,3.11-3.8,3.62-6.37.51-2.56.84-5.23.99-8.01v-87.15c-.15-2.78-.48-5.45-.99-8.01-.51-2.56-1.72-4.68-3.62-6.37-1.9-1.68-5.2-2.52-9.88-2.52-1.46,0-2.71-.14-3.73-.44-1.03-.29-1.61-1.68-1.76-4.17,0-1.17.29-2.27.88-3.29.58-1.02,1.61-1.54,3.07-1.54,4.68.15,9.11.29,13.28.44,4.17.15,8.45.22,12.84.22,8.93,0,18.07-.22,27.44-.66,1.32,0,2.31.51,2.96,1.54.66,1.03.99,2.12.99,3.29-.15,2.49-.73,3.88-1.76,4.17-1.03.29-2.34.44-3.95.44-4.54,0-7.79.84-9.77,2.52-1.98,1.68-3.18,3.81-3.62,6.37-.44,2.56-.73,5.23-.88,8.01v87.15c.14,2.78.44,5.45.88,8.01.44,2.56,1.65,4.69,3.62,6.37,1.98,1.68,5.23,2.52,9.77,2.52,1.61,0,2.93.15,3.95.44,1.02.29,1.61,1.68,1.76,4.17,0,1.17-.33,2.27-.99,3.29-.66,1.02-1.65,1.54-2.96,1.54-9.37-.44-18.44-.66-27.22-.66-4.39,0-8.71.03-12.95.11-4.25.07-8.71.25-13.39.55Z"/>
        <path class="st3" d="M1380.31,349.97c-1.46,0-2.49-.51-3.07-1.54-.59-1.02-.88-2.12-.88-3.29.14-2.49.73-3.88,1.76-4.17,1.02-.29,2.27-.44,3.73-.44,4.68,0,7.97-.84,9.88-2.52,1.9-1.68,3.11-3.8,3.62-6.37.51-2.56.77-5.23.77-8.01v-104.72h-15.15c-4.98.15-8.86,1.21-11.64,3.18-2.78,1.98-4.83,5.05-6.15,9.22-1.32,4.17-2.49,9.55-3.51,16.14-.15,1.32-1.06,2.31-2.74,2.96-1.68.66-3.33.99-4.94.99-1.03,0-2.16-.36-3.4-1.1-1.25-.73-1.87-1.83-1.87-3.29l.66-30.95c0-2.05.58-3.44,1.76-4.17,1.17-.73,2.56-1.1,4.17-1.1h107.35c1.61,0,2.96.37,4.06,1.1,1.1.73,1.65,2.12,1.65,4.17l.88,30.95c0,1.46-.62,2.56-1.87,3.29-1.25.73-2.45,1.1-3.62,1.1-1.46,0-3-.33-4.61-.99-1.61-.66-2.56-1.65-2.85-2.96-1.03-6.59-2.23-11.96-3.62-16.14-1.39-4.17-3.44-7.24-6.15-9.22-2.71-1.98-6.62-3.04-11.74-3.18h-14.93v104.72c.14,2.78.44,5.45.88,8.01.44,2.56,1.65,4.69,3.62,6.37,1.98,1.68,5.23,2.52,9.77,2.52,1.46,0,2.71.15,3.73.44,1.02.29,1.61,1.68,1.76,4.17,0,1.17-.29,2.27-.88,3.29-.59,1.02-1.61,1.54-3.07,1.54-4.69-.29-9.11-.48-13.28-.55-4.17-.08-8.38-.11-12.62-.11-8.78,0-17.93.22-27.44.66Z"/>
      </g>
    </g>
    <g>
      <path class="st2" d="M348.27,405.12h32.95l-41.86-61.39s16.85-8.43,23.68-26.81c6.83-18.38,1.98-36.64,1.98-36.64,0,0-3.81-21.11-27.17-34.89-23.36-13.79-55.15-11.36-55.15-11.36,0,0-23.23,2.43-30.64,4.98v62.68l15.02,10.33.02-56.97s39.36-6.77,59.91,6.13c.51.51,18.13,7.28,22.72,31.15,4.6,23.87-10.98,39.06-10.98,39.06,0,0-6.21,7.11-11.57,9.15.43.77,40.56,58.25,40.56,58.25l-7.91.09-42.81-61.02s12.43-3.66,18.98-14.38c6.55-10.72,8.09-19.49,5.62-31.23-2.47-11.74-12-22.3-21.45-25.79-9.45-3.49-11.57-3.84-11.57-3.84l-3.48-.77s-2.06-.26-2.13-.26-29.04.09-29.04.09h-.24s.01,54.65.01,54.65c0,0,10.02,6.13,11.38,7.94-.02-2.53.03-46.83.03-46.83l17.38.06s18.38,1.72,21.89,16.47c3.51,14.74-4.02,21.83-4.09,22.02-.06.19-6.13,8.36-17.87,9.19-11.74.83-15.57.38-15.57.38,0,0,14.83,11.6,21.72,21.94.32.51,39.94,57.94,39.94,57.94l32.78-.18"/>
      <circle class="st5" cx="263.63" cy="333.44" r="139.79"/>
      <circle class="st4" cx="263.63" cy="333.44" r="154"/>
      <path class="st2" d="M292.35,227.71s-55.15-5.11-73.79,22.98c-18.64,28.09,23.49,54.13,23.49,54.13,9.5,6.2,17.28,11.64,22.95,15.71,16.6,11.92,21.97,17.01,24.64,19.66,9.96,9.86,13.66,16.51,14.97,19.02,1.84,3.51,4.49,8.66,5.71,15.92.55,3.24,2.19,13.68-2.25,24.3-5.42,12.99-17.01,19.12-21.59,21.57-32.43,17.36-78.89,0-78.89,0l-17.87-7.91s-14.89-4.77-20.43,6.3c-.09.09-1.12-.01-1.12-.01l.88-79.36,2.19.03s3.89,21.95,12.7,34.2c8.81,12.26,14.81,21.45,31.53,29.49,16.72,8.04,29.11,7.53,29.11,7.53,1.04,0,25.25-.54,32.55-16.21.56-1.21,2.12-4.65,2.09-9.23-.12-14.5-16.13-27.53-16.13-27.53h0l-7.23-4.68-13.28-8.17-12-6.89-11.62-6.38-13.53-7.91s-24.51-13.66-32.04-35.11.77-35.87.77-35.87c0,0,10.98-24.64,40.72-31.79,29.74-7.15,55.3-4.48,77.48,6.25Z"/>
      <path class="st2" d="M252.23,405.12s10.6-1.32,14.47-6.13c-.04-4.94-.02-33.51-.02-33.51,0,0-8.9-8.66-14.45-10.45.01,2.07,0,50.09,0,50.09Z"/>
    </g>
    <g>
      <polygon class="st2" points="1445.45 436.87 1445.45 455 1440.36 450.03 1409.23 484.3 1373.17 484.44 1359.42 500.25 1343.5 500.25 1368.51 473 1404.69 473.07 1431.98 441.44 1427.69 436.87 1445.45 436.87"/>
      <g>
        <path class="st2" d="M1400.61,402.22c0,4.35-3.52,7.87-7.87,7.87s-7.87-3.52-7.87-7.87,3.52-7.87,7.87-7.87,7.87,3.52,7.87,7.87Z"/>
        <path class="st2" d="M1387.2,468.38c-.11-.1-12.11,0-12.11,0l3.48-22.44s8.24-1.59,8.62,1.72c.38,3.32-7.98,16.6-7.98,16.6,0,0,8.77.35,7.99,4.12Z"/>
        <path class="st2" d="M1415.01,460.99c-4.38-.11-8.76-.22-13.14-.34,0,0,.34-6.55.6-9.53,1.02-9.87-15.98-7.23-15.98-7.23-1.5.19-4.51.35-6.78-1.49-2.66-2.16-2.76-5.83-2.8-10.39-.04-3.12.3-7.8,2.21-13.36-3.09-.25-5.04.5-6.21,1.19-2.53,1.47-4.55,4.41-6.73,7.57-.87,1.26-1.88,3.19-3.57,3.32-.56.04-1.03-.12-1.34-.26-.1-.35-.22-.88-.27-1.53-.38-5.27,4.93-9.53,7.84-11.87,2.17-1.74,6-4.35,11.65-5.97,1.98-.48,5.74-1.09,10.21,0,6.19,1.51,9.92,5.35,11.26,6.89,3.51,1.41,6.48,1.9,8.65,2.08,3.03.25,5.37-.06,6.32,1.34.72,1.06.3,2.62-.21,3.83-2.94-.14-7.36-.43-12.75-1.12-5.61-.72-7.77-1.3-9.39,0-3.13,2.5-1.32,9.61-.47,12.45,6.11-.48,9.81,1.53,11.98,3.64.62.6,1.97,1.59,2.41,3.33.12.44.18.96.14,1.62-.19,3.25-2.98,10.87-3.33,11.81.94-.15,3.54-.42,6.26,1.01,1.8.95,2.89,2.25,3.44,3.01Z"/>
      </g>
      <g>
        <path class="st2" d="M1368.73,445.19s-4.01,9.42-4.32,10.1c-.32.69-1.47.59-1.47.59,0,0-15.87-6.84-17.25-7.44-1.39-.59-.74-1.84-.74-1.84l4.17-9.77.1-.15,6.64,8.29s-1.58,2.35.08,3.14c1.65.8,2.39-2.21,2.39-2.21l10.4-.71Z"/>
        <path class="st2" d="M1368.98,441.91l-3.37-1.45.65-1.77c1.06-2.88-1.55-3.88-1.55-3.88,0,0-2.56-1.22-5.51-2.41-2.78-.7-3.57,1.73-3.57,1.73l-.76,1.78s-2.79-1.26-3.74-1.58c-.94-.31-1.05.63-1.05.63l6.6,8.07s.64-1.98,2.06-1.51c1.41.47.43,2.47.43,2.47l10.37-.68c.39-.74-.56-1.4-.56-1.4ZM1364.51,438.92c-.07.18-.27.26-.45.18l-7.27-3.13c-.17-.07-.25-.27-.18-.44l.87-2.03c.08-.18.28-.26.46-.18l7.26,3.12c.18.08.26.28.19.45l-.88,2.03Z"/>
      </g>
    </g>
  </g>
</svg>